#!OML:ASF I:\Actors\actors\Patient Classification 2\Patient 1\Session 1\actor1.ASF
:FULLY-SPECIFIED
:DEGREES
1250
root -0.727274 18.6108 6.25887 -2.04026 -2.96759 -2.70925
lowerback 2.59658 1.15373 0.330855
upperback -0.544375 1.5609 0.57189
thorax -2.02024 0.778645 0.333629
lowerneck -9.41929 -1.20686 0.84213
upperneck 18.5629 -1.90978 0.518536
head 7.2348 -0.812336 -0.143161
rclavicle -7.19973e-015 7.55382e-015
rhumerus -55.218 -10.2845 -82.6568
rradius 49.6817
rwrist 4.0304
rhand -8.64753 -32.8962
rfingers 7.12502
rthumb 17.2857 -62.1475
lclavicle -7.19973e-015 7.55382e-015
lhumerus -42.8901 7.61941 86.2148
lradius 39.4737
lwrist -5.56036
lhand -5.28424 -24.6005
lfingers 7.12502
lthumb 20.5203 4.33501
rfemur 12.4661 5.75859 17.9792
rtibia -2.70347e-014
rfoot -20.3125 -12.0022
rtoes -5.43605
lfemur -0.289864 -9.91059 -13.6036
ltibia 22.9676
lfoot -25.4079 15.0931
ltoes -56.1734
1251
root -0.726411 18.6114 6.25953 -2.0048 -2.95429 -2.72333
lowerback 2.55772 1.16958 0.314505
upperback -0.54246 1.58146 0.584814
thorax -1.99736 0.78922 0.356031
lowerneck -9.41272 -1.22582 0.811715
upperneck 18.5828 -1.93923 0.562352
head 7.24086 -0.824477 -0.12656
rclavicle -1.04797e-014 7.95139e-016
rhumerus -55.0702 -10.233 -82.6369
rradius 49.7377
rwrist 3.95095
rhand -8.55235 -32.8117
rfingers 7.12502
rthumb 17.3773 -62.0549
lclavicle -1.04797e-014 7.95139e-016
lhumerus -42.7687 7.45079 86.4564
lradius 39.6138
lwrist -5.29869
lhand -5.32866 -24.6121
lfingers 7.12502
lthumb 20.4776 4.32804
rfemur 12.4312 5.74341 17.9905
rtibia -4.13472e-014
rfoot -20.2631 -12.0581
rtoes -5.69517
lfemur -0.318176 -10.0023 -13.6025
ltibia 22.9596
lfoot -25.3899 15.2129
ltoes -56.305
1252
root -0.725573 18.6115 6.2597 -1.98282 -2.93288 -2.67463
lowerback 2.55906 1.17493 0.255273
upperback -0.554266 1.58655 0.574634
thorax -2.01156 0.792399 0.378345
lowerneck -9.35319 -1.23613 0.762311
upperneck 18.5641 -1.9526 0.607363
head 7.22512 -0.830642 -0.104403
rclavicle -1.12003e-014 -1.19271e-015
rhumerus -54.9183 -10.2269 -82.5788
rradius 49.6447
rwrist 3.96188
rhand -8.52571 -32.5605
rfingers 7.12502
rthumb 17.4029 -61.8014
lclavicle -1.12003e-014 -1.19271e-015
lhumerus -42.7323 7.18551 86.7434
lradius 39.8382
lwrist -4.89951
lhand -5.46343 -24.5688
lfingers 7.12502
lthumb 20.3481 4.38518
rfemur 12.407 5.72411 17.9308
rtibia 4.29375e-014
rfoot -20.2871 -12.0677
rtoes -5.6466
lfemur -0.345159 -10.0424 -13.6621
ltibia 22.9548
lfoot -25.4147 15.2878
ltoes -56.3628
1253
root -0.725029 18.6118 6.25958 -1.95472 -2.92102 -2.62607
lowerback 2.58228 1.17927 0.210072
upperback -0.586364 1.59075 0.551696
thorax -2.05814 0.794871 0.37901
lowerneck -9.27847 -1.23989 0.759639
upperneck 18.5559 -1.95496 0.600748
head 7.20908 -0.832883 -0.105704
rclavicle 1.82758e-014 -2.38542e-015
rhumerus -54.8052 -10.229 -82.5308
rradius 49.5197
rwrist 4.0213
rhand -8.5583 -32.4713
rfingers 7.12502
rthumb 17.3716 -61.715
lclavicle 1.82758e-014 -2.38542e-015
lhumerus -42.7685 6.8951 86.9869
lradius 40.0596
lwrist -4.56329
lhand -5.6031 -24.4936
lfingers 7.12502
lthumb 20.2139 4.47462
rfemur 12.3776 5.71427 17.8696
rtibia -2.22639e-014
rfoot -20.3549 -12.0113
rtoes -5.37444
lfemur -0.387946 -10.0123 -13.7077
ltibia 22.9613
lfoot -25.409 15.3095
ltoes -56.3645
1254
root -0.724788 18.6123 6.26051 -1.91779 -2.93052 -2.6678
lowerback 2.58266 1.18127 0.242172
upperback -0.611127 1.59472 0.554678
thorax -2.08301 0.796466 0.363592
lowerneck -9.29386 -1.23507 0.831766
upperneck 18.6187 -1.94815 0.530742
head 7.23077 -0.830293 -0.140186
rclavicle -1.15792e-014 1.98785e-016
rhumerus -54.7041 -10.2477 -82.4845
rradius 49.3771
rwrist 4.09143
rhand -8.56992 -32.4959
rfingers 7.12502
rthumb 17.3604 -61.7406
lclavicle -1.15792e-014 1.98785e-016
lhumerus -42.7845 6.67304 87.155
lradius 40.1955
lwrist -4.3057
lhand -5.64308 -24.4116
lfingers 7.12502
lthumb 20.1754 4.56076
rfemur 12.3503 5.72003 17.9148
rtibia 3.81667e-014
rfoot -20.4053 -11.9731
rtoes -5.20828
lfemur -0.420948 -10.0801 -13.6721
ltibia 22.9749
lfoot -25.3993 15.3993
ltoes -56.3982
